<?xml version="1.0" standalone="no"?>
<!DOCTYPE svg PUBLIC "-//W3C//DTD SVG 20010904//EN"
 "http://www.w3.org/TR/2001/REC-SVG-20010904/DTD/svg10.dtd">
<svg version="1.0" xmlns="http://www.w3.org/2000/svg"
 width="1024.000000pt" height="535.000000pt" viewBox="0 0 1024.000000 535.000000"
 preserveAspectRatio="xMidYMid meet">

<g transform="translate(0.000000,535.000000) scale(0.100000,-0.100000)"
fill="#000000" stroke="none">
<path d="M5161 4809 c-24 -20 -79 -37 -186 -59 -44 -9 -68 -21 -93 -46 l-33
-33 -9 23 c-11 29 -68 96 -82 96 -5 0 -6 -9 -3 -20 3 -11 3 -20 -2 -20 -5 0
-7 -34 -5 -74 l4 -75 -45 -48 -45 -47 -11 39 c-6 22 -18 51 -28 64 -16 23 -17
23 -24 5 -4 -10 -8 -34 -8 -52 -1 -18 -10 -51 -21 -72 l-20 -40 -163 109
c-212 141 -267 170 -267 138 0 -34 72 -115 204 -231 l144 -127 -13 -42 c-8
-23 -15 -50 -17 -60 -3 -15 -8 -13 -40 13 l-37 31 -7 -36 c-12 -64 1 -131 31
-171 l28 -37 -49 7 -49 7 25 -21 25 -22 -28 5 -28 4 27 -28 c34 -36 119 -79
155 -79 l27 0 -3 -92 c-3 -79 -9 -105 -38 -173 -19 -44 -42 -105 -52 -135 -10
-30 -25 -64 -35 -75 -10 -11 -23 -38 -30 -59 -16 -49 -8 -165 12 -180 8 -6 22
-25 32 -42 10 -17 42 -45 71 -62 49 -30 58 -31 114 -25 52 5 66 11 86 35 l24
29 7 -25 c3 -14 15 -28 25 -31 31 -10 156 15 183 36 34 27 59 107 51 162 -9
58 28 187 53 187 33 0 97 -45 114 -80 33 -64 18 -221 -29 -314 -28 -55 -107
-143 -167 -187 -29 -22 -34 -29 -20 -29 17 0 16 -3 -6 -21 l-25 -20 45 6 c121
18 333 85 431 136 113 60 159 119 193 249 9 33 15 45 15 30 1 -14 -5 -49 -13
-78 -7 -29 -10 -52 -6 -52 17 0 132 134 155 180 14 27 36 86 49 132 16 52 25
72 25 54 1 -24 3 -26 16 -16 25 21 113 212 130 284 19 78 15 118 -20 188 l-24
47 33 11 c45 14 83 57 106 119 27 69 26 72 -15 55 -52 -21 -59 -17 -32 19 14
17 32 47 42 66 15 30 20 33 51 28 32 -5 46 5 24 18 -5 3 -10 11 -10 17 0 6 6
6 15 -2 30 -25 27 -1 -3 30 -31 31 -42 33 -142 32 -54 -1 -55 -1 -20 10 l35
11 -32 7 c-38 9 -77 33 -131 82 -40 37 -41 37 -26 67 8 17 18 47 21 67 l6 37
-24 -16 c-33 -23 -106 -21 -210 6 -69 18 -85 26 -79 38 4 8 11 25 15 37 6 21
5 23 -13 13 -33 -18 -140 -13 -220 10 -40 11 -80 18 -87 15 -10 -4 -11 3 -3
30 13 48 7 56 -21 33z m-2 -56 c-13 -36 -34 -58 -85 -93 -40 -27 -41 -27 -65
-9 -30 23 -38 24 -32 1 2 -10 -3 -58 -11 -108 -9 -49 -16 -109 -16 -133 0 -31
-7 -51 -23 -71 -13 -15 -53 -81 -88 -146 -73 -134 -136 -207 -195 -223 -83
-23 -195 -6 -251 37 -22 17 -21 17 50 19 39 0 90 8 112 16 l40 15 -30 6 c-75
17 -104 27 -130 48 -29 23 -55 74 -55 108 0 21 0 21 28 2 32 -22 68 -33 88
-25 12 4 11 8 -1 26 -18 26 -20 87 -2 87 22 -1 117 -100 117 -123 1 -12 9 -37
18 -55 l18 -33 -4 66 c-4 65 -4 66 34 102 21 19 51 61 67 92 l28 56 -6 -79
c-4 -65 -2 -83 12 -98 9 -10 23 -18 31 -18 14 0 14 2 0 13 -20 15 -24 46 -14
114 7 45 5 58 -14 88 -19 31 -44 49 -38 28 4 -16 -13 -79 -26 -96 -14 -18 -16
-17 -54 8 -51 34 -48 48 34 131 67 69 87 110 88 186 1 27 4 48 7 48 3 0 13
-16 22 -36 25 -51 31 -139 14 -201 -8 -29 -12 -53 -10 -53 11 0 33 75 39 136
6 61 11 73 41 101 35 33 112 63 167 63 17 1 45 7 61 15 43 19 46 18 34 -12z
m164 -54 c44 -13 86 -19 110 -16 32 4 36 3 26 -9 -16 -20 -76 -55 -118 -70
-20 -7 -28 -13 -19 -14 10 0 39 7 65 16 64 22 142 20 237 -6 49 -14 93 -20
115 -17 36 6 36 6 14 -12 -12 -10 -47 -21 -81 -25 -61 -7 -95 -24 -112 -57
-11 -19 -10 -19 22 1 61 37 136 20 212 -49 l53 -48 -67 5 c-64 4 -69 3 -84
-20 -18 -28 -11 -60 14 -67 46 -13 98 -11 188 8 55 12 113 21 128 21 l27 0
-25 -19 c-13 -11 -34 -40 -47 -64 -24 -47 -72 -79 -136 -92 l-30 -7 35 -15
c19 -9 63 -16 97 -17 35 -1 63 -3 63 -7 0 -9 -63 -66 -87 -78 -49 -25 -77 -15
-117 44 -77 110 -239 245 -369 305 -65 30 -191 60 -252 60 -25 0 -37 5 -41 18
-18 55 -32 81 -63 115 -20 22 -30 41 -25 47 5 4 34 27 64 49 65 49 97 52 203
20z m-1097 -60 c3 -5 -6 -9 -19 -9 -21 0 -57 34 -57 54 0 7 69 -34 76 -45z
m71 -54 c-6 -18 -48 -17 -68 1 -19 17 -19 19 -3 31 14 10 22 9 46 -5 15 -9 27
-21 25 -27z m800 -80 c19 -35 26 -65 26 -100 -1 -44 1 -47 13 -30 8 10 14 24
14 31 0 6 13 14 29 17 114 23 386 -103 506 -234 92 -100 202 -280 215 -350 13
-70 -24 -195 -83 -280 -14 -19 -15 -18 -21 18 -8 54 -57 151 -101 201 -20 23
-40 42 -45 42 -4 0 7 -28 25 -62 71 -135 88 -291 43 -388 -24 -51 -91 -140
-106 -140 -4 0 -5 22 -4 50 5 69 -15 177 -43 236 l-24 49 7 -45 c12 -75 7
-251 -7 -310 -20 -79 -96 -153 -222 -213 -90 -44 -205 -86 -279 -102 l-34 -7
45 50 c86 95 139 241 139 382 0 105 -45 176 -123 195 -15 4 -27 11 -27 16 0
21 110 89 175 108 104 32 146 59 173 111 22 41 23 53 17 145 -3 55 -9 116 -12
135 -6 33 -7 33 -13 10 l-6 -25 -17 33 c-10 17 -20 32 -22 32 -5 0 2 -18 30
-85 26 -59 24 -151 -4 -208 -32 -65 -68 -92 -167 -122 -61 -19 -96 -36 -125
-62 -82 -74 -130 -192 -132 -324 -2 -92 -19 -129 -58 -129 -16 0 -17 4 -8 26
5 15 7 29 4 32 -3 3 -5 1 -5 -5 0 -6 -15 -25 -32 -42 -41 -40 -91 -41 -96 -2
-5 32 11 46 31 27 37 -38 107 40 107 119 0 55 -30 78 -92 73 -65 -7 -88 -30
-153 -155 -48 -94 -75 -126 -92 -109 -4 4 0 12 9 17 10 6 23 19 29 30 10 20
10 20 -16 3 -22 -14 -32 -15 -65 -5 -44 13 -83 55 -75 82 5 13 1 16 -14 12
-16 -4 -20 2 -26 46 -11 83 12 142 51 127 12 -4 14 -1 9 14 -8 25 53 206 104
308 33 65 37 79 23 78 -22 -1 -27 33 -12 78 10 31 18 36 78 55 94 28 141 71
190 174 22 45 61 111 86 145 43 58 49 62 64 49 9 -7 25 -17 36 -21 13 -4 10 3
-13 29 -33 38 -38 71 -24 171 8 61 21 34 22 -47 1 -55 24 -99 53 -99 7 0 4 6
-6 13 -23 17 -35 80 -35 177 l0 75 30 -35 c17 -19 42 -57 56 -85z m-737 45
c21 -17 23 -21 10 -30 -22 -14 -53 -12 -79 6 l-24 17 24 13 c32 18 40 17 69
-6z m260 -77 c-14 -48 -20 -55 -38 -44 -9 5 -5 24 15 70 21 47 29 57 31 40 2
-12 -2 -42 -8 -66z m-171 -9 c-16 -19 -68 -18 -91 3 -18 16 -18 18 14 34 31
16 34 16 61 -3 22 -16 25 -23 16 -34z m61 -24 c24 -20 25 -21 6 -35 -27 -21
-69 -19 -97 5 -23 19 -23 19 -3 20 11 0 29 7 40 15 24 18 24 18 54 -5z m64
-45 c47 -36 -40 -73 -92 -39 l-27 18 33 7 c19 4 39 12 45 18 14 14 18 14 41
-4z m70 -54 c14 -16 15 -20 2 -30 -28 -23 -80 -24 -106 -2 l-25 20 26 1 c14 0
34 7 45 15 25 19 38 19 58 -4z m1154 -1 c15 0 15 -2 2 -10 -19 -12 -67 -13
-75 -1 -6 11 23 21 43 15 8 -2 21 -4 30 -4z m-1160 -69 c-18 -22 -27 -26 -40
-19 -25 12 -22 28 5 28 12 0 29 5 37 10 23 15 23 12 -2 -19z m192 -941 c0 -13
-38 -32 -50 -25 -13 8 -13 28 2 43 12 12 48 -1 48 -18z m-110 -34 c0 -25 -12
-46 -26 -46 -17 0 -17 1 -4 34 10 28 30 35 30 12z m48 -8 c-3 -7 -13 -15 -24
-17 -16 -3 -17 -1 -5 13 16 19 34 21 29 4z m81 -7 c17 -30 -9 -56 -47 -48 -19
4 -32 2 -32 -4 0 -6 -7 -6 -20 1 -11 6 -20 15 -20 21 0 6 7 6 20 -1 16 -8 20
-8 20 4 0 14 43 45 62 46 4 0 12 -8 17 -19z m-144 -51 c10 -17 -24 -70 -45
-70 -24 0 -25 11 -5 50 15 30 38 39 50 20z m115 -19 c0 -12 -29 -23 -41 -15
-5 3 -7 10 -4 15 8 12 45 12 45 0z m-164 -76 c-26 -19 -47 -19 -40 0 4 8 18
15 33 15 25 -1 25 -1 7 -15z"/>
<path d="M4857 4119 c-28 -21 -67 -87 -67 -111 1 -7 8 1 17 17 8 17 31 49 50
73 39 48 39 50 0 21z"/>
<path d="M4982 4114 c-30 -21 -57 -77 -72 -149 -18 -88 -35 -124 -66 -135 -20
-8 -32 -7 -50 5 -25 16 -34 6 -11 -13 27 -23 68 -25 95 -5 15 11 37 23 50 27
33 11 70 65 85 126 11 41 22 60 43 73 l29 19 -30 -7 c-16 -3 -47 -17 -67 -30
l-36 -24 9 31 c11 39 36 67 74 84 l30 13 -30 1 c-17 0 -41 -7 -53 -16z m13
-145 c-22 -63 -37 -89 -57 -100 -14 -7 -18 -6 -18 6 0 8 11 20 25 25 27 10 32
29 13 48 -9 9 -5 19 17 42 16 16 30 28 32 26 2 -1 -4 -23 -12 -47z"/>
<path d="M5026 3945 c-6 -28 -20 -52 -51 -81 -28 -27 -36 -40 -23 -36 48 12
101 100 86 144 -3 7 -8 -5 -12 -27z"/>
<path d="M4710 3846 c0 -16 17 -31 47 -40 20 -6 19 -4 -8 23 -34 35 -39 37
-39 17z"/>
<path d="M4642 3698 c-30 -75 -49 -150 -33 -133 10 12 72 197 67 202 -2 2 -17
-29 -34 -69z"/>
<path d="M4556 3484 c-63 -43 -85 -127 -45 -178 15 -19 29 -26 52 -25 24 1 26
3 10 6 -33 6 -53 41 -53 91 0 35 6 49 29 73 32 31 86 40 109 17 8 -8 12 -9 12
-1 0 19 -30 43 -53 43 -12 0 -40 -12 -61 -26z"/>
<path d="M4603 3454 c16 -5 15 -7 -4 -23 -13 -10 -22 -30 -23 -48 -1 -22 -5
-29 -16 -25 -12 4 -12 2 1 -13 34 -36 94 21 87 83 -2 22 -8 27 -33 29 -16 1
-22 -1 -12 -3z"/>
<path d="M4740 3419 l-25 -20 34 16 c44 22 94 13 121 -22 11 -14 20 -21 20
-16 0 6 -9 22 -21 37 -26 33 -91 36 -129 5z"/>
<path d="M4406 3393 c8 -5 9 -24 4 -58 -7 -46 -6 -64 4 -54 2 2 6 28 7 58 3
42 1 55 -11 58 -10 3 -11 2 -4 -4z"/>
<path d="M2927 2539 c4 -13 8 -18 11 -10 2 7 -1 18 -6 23 -8 8 -9 4 -5 -13z"/>
<path d="M2990 2544 c0 -8 5 -12 10 -9 6 3 10 10 10 16 0 5 -4 9 -10 9 -5 0
-10 -7 -10 -16z"/>
<path d="M3064 2545 c-3 -8 -4 -20 -2 -27 3 -7 7 -1 10 15 6 29 1 36 -8 12z"/>
<path d="M3253 2495 c0 -38 2 -53 4 -32 2 20 2 52 0 70 -2 17 -4 1 -4 -38z"/>
<path d="M3509 2533 c-2 -16 -1 -46 2 -68 5 -33 6 -29 8 28 1 69 -4 88 -10 40z"/>
<path d="M4479 2533 c-2 -16 -1 -46 2 -68 5 -33 6 -29 8 28 1 69 -4 88 -10 40z"/>
<path d="M5053 2495 c0 -38 2 -53 4 -32 2 20 2 52 0 70 -2 17 -4 1 -4 -38z"/>
<path d="M4999 2538 c-3 -7 -2 -33 1 -58 l6 -45 5 48 c4 47 -4 83 -12 55z"/>
<path d="M6089 2538 c-3 -7 -2 -33 1 -58 l6 -45 5 48 c4 47 -4 83 -12 55z"/>
<path d="M7239 2538 c-3 -7 -2 -33 1 -58 l6 -45 5 48 c4 47 -4 83 -12 55z"/>
<path d="M4169 2513 c-13 -17 -13 -17 6 -3 11 8 22 16 24 17 2 2 0 3 -6 3 -6
0 -17 -8 -24 -17z"/>
<path d="M5559 2513 c-13 -17 -13 -17 6 -3 11 8 22 16 24 17 2 2 0 3 -6 3 -6
0 -17 -8 -24 -17z"/>
<path d="M6907 2523 c-2 -5 -1 -35 3 -68 l7 -60 2 68 c1 62 -2 78 -12 60z"/>
<path d="M3156 2506 c5 -13 -1 -16 -30 -16 -20 0 -36 -3 -36 -8 0 -4 18 -6 40
-4 38 4 54 22 30 37 -6 3 -7 -1 -4 -9z"/>
<path d="M3310 2472 l5 -47 3 39 c2 21 0 42 -5 47 -4 4 -6 -13 -3 -39z"/>
<path d="M3976 2506 c5 -13 -1 -16 -30 -16 -20 0 -36 -3 -36 -8 0 -4 18 -6 40
-4 38 4 54 22 30 37 -6 3 -7 -1 -4 -9z"/>
<path d="M4215 2480 c0 -21 3 -36 8 -33 4 2 7 17 7 33 0 16 -3 31 -7 33 -5 3
-8 -12 -8 -33z"/>
<path d="M4810 2472 l5 -47 3 39 c2 21 0 42 -5 47 -4 4 -6 -13 -3 -39z"/>
<path d="M5110 2472 l5 -47 3 39 c2 21 0 42 -5 47 -4 4 -6 -13 -3 -39z"/>
<path d="M5206 2506 c5 -13 -1 -16 -30 -16 -20 0 -36 -3 -36 -8 0 -4 18 -6 40
-4 38 4 54 22 30 37 -6 3 -7 -1 -4 -9z"/>
<path d="M5416 2506 c5 -13 -1 -16 -30 -16 -20 0 -36 -3 -36 -8 0 -4 18 -6 40
-4 38 4 54 22 30 37 -6 3 -7 -1 -4 -9z"/>
<path d="M5605 2480 c0 -21 3 -36 8 -33 4 2 7 17 7 33 0 16 -3 31 -7 33 -5 3
-8 -12 -8 -33z"/>
<path d="M5810 2472 l5 -47 3 39 c2 21 0 42 -5 47 -4 4 -6 -13 -3 -39z"/>
<path d="M5996 2506 c5 -13 -1 -16 -30 -16 -20 0 -36 -3 -36 -8 0 -4 18 -6 40
-4 38 4 54 22 30 37 -6 3 -7 -1 -4 -9z"/>
<path d="M6806 2506 c5 -13 -1 -16 -30 -16 -20 0 -36 -3 -36 -8 0 -4 18 -6 40
-4 38 4 54 22 30 37 -6 3 -7 -1 -4 -9z"/>
<path d="M7106 2506 c5 -13 -1 -16 -30 -16 -20 0 -36 -3 -36 -8 0 -4 18 -6 40
-4 38 4 54 22 30 37 -6 3 -7 -1 -4 -9z"/>
<path d="M2941 2494 c0 -11 3 -14 6 -6 3 7 2 16 -1 19 -3 4 -6 -2 -5 -13z"/>
<path d="M4263 2470 c0 -25 2 -35 4 -22 2 12 2 32 0 45 -2 12 -4 2 -4 -23z"/>
<path d="M4753 2470 c0 -25 2 -35 4 -22 2 12 2 32 0 45 -2 12 -4 2 -4 -23z"/>
<path d="M5303 2470 c0 -25 2 -35 4 -22 2 12 2 32 0 45 -2 12 -4 2 -4 -23z"/>
<path d="M5753 2470 c0 -25 2 -35 4 -22 2 12 2 32 0 45 -2 12 -4 2 -4 -23z"/>
<path d="M6583 2470 c0 -25 2 -35 4 -22 2 12 2 32 0 45 -2 12 -4 2 -4 -23z"/>
<path d="M6693 2470 c0 -25 2 -35 4 -22 2 12 2 32 0 45 -2 12 -4 2 -4 -23z"/>
<path d="M3051 2484 c0 -11 3 -14 6 -6 3 7 2 16 -1 19 -3 4 -6 -2 -5 -13z"/>
<path d="M3442 2480 c0 -14 2 -19 5 -12 2 6 2 18 0 25 -3 6 -5 1 -5 -13z"/>
<path d="M4382 2480 c0 -14 2 -19 5 -12 2 6 2 18 0 25 -3 6 -5 1 -5 -13z"/>
<path d="M4412 2480 c0 -14 2 -19 5 -12 2 6 2 18 0 25 -3 6 -5 1 -5 -13z"/>
<path d="M4612 2480 c0 -14 2 -19 5 -12 2 6 2 18 0 25 -3 6 -5 1 -5 -13z"/>
<path d="M5712 2480 c0 -14 2 -19 5 -12 2 6 2 18 0 25 -3 6 -5 1 -5 -13z"/>
<path d="M6202 2480 c0 -14 2 -19 5 -12 2 6 2 18 0 25 -3 6 -5 1 -5 -13z"/>
<path d="M6442 2480 c0 -14 2 -19 5 -12 2 6 2 18 0 25 -3 6 -5 1 -5 -13z"/>
<path d="M6842 2480 c0 -14 2 -19 5 -12 2 6 2 18 0 25 -3 6 -5 1 -5 -13z"/>
<path d="M3686 2467 c3 -10 9 -15 12 -12 3 3 0 11 -7 18 -10 9 -11 8 -5 -6z"/>
<path d="M3776 2467 c3 -10 9 -15 12 -12 3 3 0 11 -7 18 -10 9 -11 8 -5 -6z"/>
<path d="M4066 2467 c3 -10 9 -15 12 -12 3 3 0 11 -7 18 -10 9 -11 8 -5 -6z"/>
<path d="M5506 2467 c3 -10 9 -15 12 -12 3 3 0 11 -7 18 -10 9 -11 8 -5 -6z"/>
<path d="M5896 2467 c3 -10 9 -15 12 -12 3 3 0 11 -7 18 -10 9 -11 8 -5 -6z"/>
<path d="M7196 2467 c3 -10 9 -15 12 -12 3 3 0 11 -7 18 -10 9 -11 8 -5 -6z"/>
<path d="M2950 2458 c0 -9 5 -20 10 -23 13 -8 13 5 0 25 -8 13 -10 13 -10 -2z"/>
<path d="M6301 2465 c0 -5 4 -19 8 -29 7 -19 8 -19 13 2 4 12 2 20 -2 17 -5
-3 -11 1 -13 7 -3 7 -5 9 -6 3z"/>
<path d="M3036 2451 c-4 -7 -5 -15 -2 -18 9 -9 19 4 14 18 -4 11 -6 11 -12 0z"/>
<path d="M4858 2408 c5 -5 16 -8 23 -6 8 3 3 7 -10 11 -17 4 -21 3 -13 -5z"/>
<path d="M3473 2115 c0 -38 2 -53 4 -32 2 20 2 52 0 70 -2 17 -4 1 -4 -38z"/>
<path d="M3822 2113 c0 -38 3 -54 5 -36 4 27 9 32 35 35 35 3 59 31 42 48 -8
8 -10 4 -10 -12 1 -19 -5 -24 -31 -26 -29 -3 -33 0 -33 22 0 19 6 26 28 29 25
4 25 4 -5 6 l-33 1 2 -67z"/>
<path d="M3943 2115 c0 -38 2 -53 4 -32 2 20 2 52 0 70 -2 17 -4 1 -4 -38z"/>
<path d="M5133 2115 c0 -38 2 -53 4 -32 2 20 2 52 0 70 -2 17 -4 1 -4 -38z"/>
<path d="M5779 2153 c-2 -16 -1 -46 2 -68 5 -33 6 -29 8 28 1 69 -4 88 -10 40z"/>
<path d="M6933 2115 c0 -38 2 -53 4 -32 2 20 2 52 0 70 -2 17 -4 1 -4 -38z"/>
<path d="M7543 2115 c0 -38 2 -53 4 -32 2 20 2 52 0 70 -2 17 -4 1 -4 -38z"/>
<path d="M2444 2155 c-7 -17 3 -35 19 -35 8 0 7 3 -2 9 -8 5 -11 16 -8 25 4 9
4 16 1 16 -2 0 -7 -7 -10 -15z"/>
<path d="M3319 2158 c-3 -7 -2 -33 1 -58 l6 -45 5 48 c4 47 -4 83 -12 55z"/>
<path d="M3419 2158 c-3 -7 -2 -33 1 -58 l6 -45 5 48 c4 47 -4 83 -12 55z"/>
<path d="M3669 2158 c-3 -7 -2 -33 1 -58 l6 -45 5 48 c4 47 -4 83 -12 55z"/>
<path d="M4419 2158 c-3 -7 -2 -33 1 -58 l6 -45 5 48 c4 47 -4 83 -12 55z"/>
<path d="M4829 2158 c-3 -7 -2 -35 1 -63 l6 -50 4 53 c5 52 -3 89 -11 60z"/>
<path d="M6159 2158 c-3 -7 -2 -33 1 -58 l6 -45 5 48 c4 47 -4 83 -12 55z"/>
<path d="M6399 2158 c-3 -7 -2 -33 1 -58 l6 -45 5 48 c4 47 -4 83 -12 55z"/>
<path d="M6779 2158 c-3 -7 -2 -35 1 -63 l6 -50 4 53 c5 52 -3 89 -11 60z"/>
<path d="M6879 2158 c-3 -7 -2 -33 1 -58 l6 -45 5 48 c4 47 -4 83 -12 55z"/>
<path d="M2663 2100 c0 -30 2 -43 4 -27 2 15 2 39 0 55 -2 15 -4 2 -4 -28z"/>
<path d="M7189 2133 c-13 -17 -13 -17 6 -3 11 8 22 16 24 17 2 2 0 3 -6 3 -6
0 -17 -8 -24 -17z"/>
<path d="M2615 2100 c0 -21 3 -36 8 -33 4 2 7 17 7 33 0 16 -3 31 -7 33 -5 3
-8 -12 -8 -33z"/>
<path d="M3075 2100 c0 -21 3 -36 8 -33 4 2 7 17 7 33 0 16 -3 31 -7 33 -5 3
-8 -12 -8 -33z"/>
<path d="M3530 2092 l5 -47 3 39 c2 21 0 42 -5 47 -4 4 -6 -13 -3 -39z"/>
<path d="M4036 2126 c5 -13 -1 -16 -30 -16 -20 0 -36 -3 -36 -8 0 -4 18 -6 40
-4 38 4 54 22 30 37 -6 3 -7 -1 -4 -9z"/>
<path d="M4326 2126 c5 -13 -1 -16 -30 -16 -20 0 -36 -3 -36 -8 0 -4 18 -6 40
-4 38 4 54 22 30 37 -6 3 -7 -1 -4 -9z"/>
<path d="M4786 2126 c5 -13 -1 -16 -30 -16 -20 0 -36 -3 -36 -8 0 -4 18 -6 40
-4 38 4 54 22 30 37 -6 3 -7 -1 -4 -9z"/>
<path d="M4996 2126 c5 -13 -1 -16 -30 -16 -20 0 -36 -3 -36 -8 0 -4 18 -6 40
-4 38 4 54 22 30 37 -6 3 -7 -1 -4 -9z"/>
<path d="M5190 2092 l5 -47 3 39 c2 21 0 42 -5 47 -4 4 -6 -13 -3 -39z"/>
<path d="M5330 2092 l5 -47 3 39 c2 21 0 42 -5 47 -4 4 -6 -13 -3 -39z"/>
<path d="M5680 2092 l5 -47 3 39 c2 21 0 42 -5 47 -4 4 -6 -13 -3 -39z"/>
<path d="M6120 2092 l5 -47 3 39 c2 21 0 42 -5 47 -4 4 -6 -13 -3 -39z"/>
<path d="M6990 2092 l5 -47 3 39 c2 21 0 42 -5 47 -4 4 -6 -13 -3 -39z"/>
<path d="M7086 2126 c5 -13 -1 -16 -30 -16 -20 0 -36 -3 -36 -8 0 -4 18 -6 40
-4 38 4 54 22 30 37 -6 3 -7 -1 -4 -9z"/>
<path d="M7235 2100 c0 -21 3 -36 8 -33 4 2 7 17 7 33 0 16 -3 31 -7 33 -5 3
-8 -12 -8 -33z"/>
<path d="M7495 2100 c0 -21 3 -36 8 -33 4 2 7 17 7 33 0 16 -3 31 -7 33 -5 3
-8 -12 -8 -33z"/>
<path d="M2723 2090 c0 -25 2 -35 4 -22 2 12 2 32 0 45 -2 12 -4 2 -4 -23z"/>
<path d="M4473 2090 c0 -25 2 -35 4 -22 2 12 2 32 0 45 -2 12 -4 2 -4 -23z"/>
<path d="M4673 2090 c0 -25 2 -35 4 -22 2 12 2 32 0 45 -2 12 -4 2 -4 -23z"/>
<path d="M4883 2090 c0 -25 2 -35 4 -22 2 12 2 32 0 45 -2 12 -4 2 -4 -23z"/>
<path d="M5273 2090 c0 -25 2 -35 4 -22 2 12 2 32 0 45 -2 12 -4 2 -4 -23z"/>
<path d="M5623 2090 c0 -25 2 -35 4 -22 2 12 2 32 0 45 -2 12 -4 2 -4 -23z"/>
<path d="M6063 2090 c0 -25 2 -35 4 -22 2 12 2 32 0 45 -2 12 -4 2 -4 -23z"/>
<path d="M7283 2090 c0 -25 2 -35 4 -22 2 12 2 32 0 45 -2 12 -4 2 -4 -23z"/>
<path d="M7733 2090 c0 -25 2 -35 4 -22 2 12 2 32 0 45 -2 12 -4 2 -4 -23z"/>
<path d="M2499 2109 c17 -7 22 -15 18 -29 -3 -11 -1 -18 4 -14 26 16 1 55 -34
53 -7 0 -1 -5 12 -10z"/>
<path d="M3182 2100 c0 -14 2 -19 5 -12 2 6 2 18 0 25 -3 6 -5 1 -5 -13z"/>
<path d="M5712 2100 c0 -14 2 -19 5 -12 2 6 2 18 0 25 -3 6 -5 1 -5 -13z"/>
<path d="M5862 2100 c0 -14 2 -19 5 -12 2 6 2 18 0 25 -3 6 -5 1 -5 -13z"/>
<path d="M6022 2100 c0 -14 2 -19 5 -12 2 6 2 18 0 25 -3 6 -5 1 -5 -13z"/>
<path d="M6302 2100 c0 -14 2 -19 5 -12 2 6 2 18 0 25 -3 6 -5 1 -5 -13z"/>
<path d="M7402 2100 c0 -14 2 -19 5 -12 2 6 2 18 0 25 -3 6 -5 1 -5 -13z"/>
<path d="M7571 2095 c0 -11 3 -14 6 -7 2 6 20 12 39 12 19 0 34 3 34 8 0 4
-18 7 -40 7 -34 0 -40 -3 -39 -20z"/>
<path d="M4226 2087 c3 -10 9 -15 12 -12 3 3 0 11 -7 18 -10 9 -11 8 -5 -6z"/>
<path d="M5086 2087 c3 -10 9 -15 12 -12 3 3 0 11 -7 18 -10 9 -11 8 -5 -6z"/>
<path d="M6646 2087 c3 -10 9 -15 12 -12 3 3 0 11 -7 18 -10 9 -11 8 -5 -6z"/>
<path d="M2440 2081 c0 -6 4 -13 10 -16 6 -3 7 1 4 9 -7 18 -14 21 -14 7z"/>
<path d="M2791 2085 c0 -5 4 -19 8 -29 7 -19 8 -19 13 2 4 12 2 20 -2 17 -5
-3 -11 1 -13 7 -3 7 -5 9 -6 3z"/>
<path d="M4541 2085 c0 -5 4 -19 8 -29 7 -19 8 -19 13 2 4 12 2 20 -2 17 -5
-3 -11 1 -13 7 -3 7 -5 9 -6 3z"/>
<path d="M3020 2070 c0 -5 5 -10 11 -10 5 0 7 5 4 10 -3 6 -8 10 -11 10 -2 0
-4 -4 -4 -10z"/>
<path d="M7440 2070 c0 -5 5 -10 11 -10 5 0 7 5 4 10 -3 6 -8 10 -11 10 -2 0
-4 -4 -4 -10z"/>
<path d="M5378 2028 c5 -5 16 -8 23 -6 8 3 3 7 -10 11 -17 4 -21 3 -13 -5z"/>
<path d="M5279 1878 c-3 -7 -2 -33 1 -58 l6 -45 5 48 c4 47 -4 83 -12 55z"/>
<path d="M5003 1820 c0 -30 2 -43 4 -27 2 15 2 39 0 55 -2 15 -4 2 -4 -28z"/>
<path d="M4801 1798 c1 -68 6 -61 11 15 2 26 0 47 -4 47 -5 0 -7 -28 -7 -62z"/>
<path d="M4956 1846 c4 -11 -3 -16 -28 -19 l-33 -4 38 -1 c26 -2 37 2 37 12 0
8 -4 18 -10 21 -5 3 -7 0 -4 -9z"/>
<path d="M5106 1807 c3 -10 9 -15 12 -12 3 3 0 11 -7 18 -10 9 -11 8 -5 -6z"/>
<path d="M5236 1807 c3 -10 9 -15 12 -12 3 3 0 11 -7 18 -10 9 -11 8 -5 -6z"/>
<path d="M5376 1807 c3 -10 9 -15 12 -12 3 3 0 11 -7 18 -10 9 -11 8 -5 -6z"/>
<path d="M4990 1276 c0 -20 -6 -25 -32 -29 l-33 -4 32 -1 c26 -2 32 -7 36 -29
2 -16 5 -2 6 30 0 31 -1 57 -4 57 -3 0 -5 -11 -5 -24z"/>
<path d="M5100 1249 c0 -50 2 -55 23 -56 19 -2 20 0 5 8 -12 6 -17 22 -16 50
0 22 -2 43 -6 46 -3 4 -6 -18 -6 -48z"/>
<path d="M5250 1293 c8 -3 22 -11 30 -17 13 -10 13 -9 1 7 -7 9 -21 17 -30 16
-13 0 -14 -1 -1 -6z"/>
<path d="M6523 1250 c0 -30 2 -43 4 -27 2 15 2 39 0 55 -2 15 -4 2 -4 -28z"/>
<path d="M3729 1279 c-2 -29 3 -74 9 -81 4 -4 6 13 5 38 -1 43 -12 74 -14 43z"/>
<path d="M3811 1273 c-1 -15 8 -24 29 -32 36 -12 39 -28 8 -41 -16 -6 -18 -9
-7 -9 26 -1 44 26 29 44 -7 8 -19 15 -27 15 -7 0 -18 10 -23 23 -9 22 -9 22
-9 0z"/>
<path d="M4258 1280 c-5 -17 3 -90 11 -90 3 0 5 21 4 46 -1 46 -8 65 -15 44z"/>
<path d="M5429 1279 c-2 -29 3 -74 9 -81 4 -4 6 13 5 38 -1 43 -12 74 -14 43z"/>
<path d="M6089 1273 c-13 -16 -12 -17 4 -4 9 7 17 15 17 17 0 8 -8 3 -21 -13z"/>
<path d="M6328 1280 c-5 -17 3 -90 11 -90 3 0 5 21 4 46 -1 46 -8 65 -15 44z"/>
<path d="M6669 1279 c-2 -29 3 -74 9 -81 4 -4 6 13 5 38 -1 43 -12 74 -14 43z"/>
<path d="M5220 1271 c0 -6 4 -13 10 -16 6 -3 7 1 4 9 -7 18 -14 21 -14 7z"/>
<path d="M3395 1260 c-3 -6 1 -7 9 -4 18 7 21 14 7 14 -6 0 -13 -4 -16 -10z"/>
<path d="M3497 1263 c6 -4 13 -24 16 -43 4 -34 4 -33 3 4 -1 26 -6 41 -16 43
-10 3 -11 2 -3 -4z"/>
<path d="M3600 1266 c0 -2 7 -7 16 -10 8 -3 12 -2 9 4 -6 10 -25 14 -25 6z"/>
<path d="M3987 1263 c-3 -5 5 -8 18 -8 13 0 21 3 18 8 -2 4 -10 7 -18 7 -8 0
-16 -3 -18 -7z"/>
<path d="M4050 1216 c0 -27 3 -46 7 -43 3 4 6 23 5 42 -1 23 4 38 16 44 15 9
14 10 -5 8 -21 -1 -23 -7 -23 -51z"/>
<path d="M4142 1258 c-22 -22 -7 -69 23 -68 5 0 2 5 -7 11 -10 5 -18 19 -18
29 0 10 8 24 18 29 9 6 12 11 7 11 -6 0 -16 -5 -23 -12z"/>
<path d="M4213 1230 c0 -25 2 -35 4 -22 2 12 2 32 0 45 -2 12 -4 2 -4 -23z"/>
<path d="M5022 1240 c0 -19 2 -27 5 -17 2 9 2 25 0 35 -3 9 -5 1 -5 -18z"/>
<path d="M5070 1240 c0 -17 -7 -33 -17 -39 -16 -9 -15 -10 5 -8 19 1 22 7 22
39 0 21 -2 38 -5 38 -3 0 -5 -13 -5 -30z"/>
<path d="M5370 1266 c0 -2 7 -7 16 -10 8 -3 12 -2 9 4 -6 10 -25 14 -25 6z"/>
<path d="M5560 1266 c0 -2 7 -7 16 -10 8 -3 12 -2 9 4 -6 10 -25 14 -25 6z"/>
<path d="M6225 1260 c-3 -6 1 -7 9 -4 18 7 21 14 7 14 -6 0 -13 -4 -16 -10z"/>
<path d="M6263 1225 c0 -27 2 -38 4 -22 2 15 2 37 0 50 -2 12 -4 0 -4 -28z"/>
<path d="M6397 1263 c6 -4 13 -24 16 -43 4 -34 4 -33 3 4 -1 26 -6 41 -16 43
-10 3 -11 2 -3 -4z"/>
<path d="M6442 1240 c0 -19 2 -27 5 -17 2 9 2 25 0 35 -3 9 -5 1 -5 -18z"/>
<path d="M6490 1240 c0 -17 -7 -33 -17 -39 -16 -9 -15 -10 5 -8 19 1 22 7 22
39 0 21 -2 38 -5 38 -3 0 -5 -13 -5 -30z"/>
<path d="M6553 1260 c9 -6 17 -20 17 -30 0 -10 -8 -24 -17 -30 -11 -7 -12 -10
-4 -7 8 2 19 11 25 20 12 19 -1 48 -25 54 -8 3 -7 0 4 -7z"/>
<path d="M6605 1260 c-3 -6 1 -7 9 -4 18 7 21 14 7 14 -6 0 -13 -4 -16 -10z"/>
<path d="M6716 1261 c-3 -5 2 -7 13 -4 15 4 19 -1 19 -22 0 -15 4 -31 9 -36 7
-7 8 3 4 28 -6 37 -32 56 -45 34z"/>
<path d="M6822 1240 c0 -19 2 -27 5 -17 2 9 2 25 0 35 -3 9 -5 1 -5 -18z"/>
<path d="M6870 1240 c0 -17 -7 -33 -17 -39 -16 -9 -15 -10 5 -8 19 1 22 7 22
39 0 21 -2 38 -5 38 -3 0 -5 -13 -5 -30z"/>
<path d="M6904 1259 c-3 -6 -1 -16 5 -22 9 -9 10 -7 5 7 -6 16 -4 18 14 14 12
-4 20 -2 16 3 -7 12 -31 11 -40 -2z"/>
<path d="M6151 1244 c0 -11 3 -14 6 -6 3 7 2 16 -1 19 -3 4 -6 -2 -5 -13z"/>
<path d="M4182 1230 c0 -14 2 -19 5 -12 2 6 2 18 0 25 -3 6 -5 1 -5 -13z"/>
<path d="M4798 1243 c6 -2 18 -2 25 0 6 3 1 5 -13 5 -14 0 -19 -2 -12 -5z"/>
<path d="M5262 1238 c9 -7 18 -20 21 -28 4 -10 6 -8 6 6 1 12 -6 25 -15 28
-25 9 -29 7 -12 -6z"/>
<path d="M6071 1234 c0 -11 3 -14 6 -6 3 7 2 16 -1 19 -3 4 -6 -2 -5 -13z"/>
<path d="M3583 1216 c1 -11 9 -21 17 -23 10 -3 11 -2 4 4 -6 4 -14 15 -17 23
-5 11 -6 9 -4 -4z"/>
<path d="M4750 1221 c0 -6 4 -13 10 -16 6 -3 7 1 4 9 -7 18 -14 21 -14 7z"/>
<path d="M4816 1213 c-6 -14 -5 -15 5 -6 7 7 10 15 7 18 -3 3 -9 -2 -12 -12z"/>
<path d="M5353 1216 c1 -11 9 -21 17 -23 10 -3 11 -2 4 4 -6 4 -14 15 -17 23
-5 11 -6 9 -4 -4z"/>
<path d="M6636 1217 c3 -10 9 -15 12 -12 3 3 0 11 -7 18 -10 9 -11 8 -5 -6z"/>
<path d="M6937 1213 c5 -13 2 -15 -17 -10 -16 4 -20 3 -12 -5 14 -14 42 -3 42
17 0 8 -4 15 -10 15 -5 0 -7 -7 -3 -17z"/>
<path d="M3900 1211 c0 -10 19 -25 25 -20 1 2 -3 10 -11 17 -8 7 -14 8 -14 3z"/>
<path d="M5470 1211 c0 -10 19 -25 25 -20 1 2 -3 10 -11 17 -8 7 -14 8 -14 3z"/>
<path d="M6147 1209 c7 -7 15 -10 18 -7 3 3 -2 9 -12 12 -14 6 -15 5 -6 -5z"/>
<path d="M3397 1199 c7 -7 15 -10 18 -7 3 3 -2 9 -12 12 -14 6 -15 5 -6 -5z"/>
<path d="M4010 1200 c-9 -6 -10 -10 -3 -10 6 0 15 5 18 10 8 12 4 12 -15 0z"/>
<path d="M6227 1199 c7 -7 15 -10 18 -7 3 3 -2 9 -12 12 -14 6 -15 5 -6 -5z"/>
<path d="M6607 1199 c7 -7 15 -10 18 -7 3 3 -2 9 -12 12 -14 6 -15 5 -6 -5z"/>
<path d="M5248 1193 c7 -3 16 -2 19 1 4 3 -2 6 -13 5 -11 0 -14 -3 -6 -6z"/>
<path d="M6128 1173 c7 -3 16 -2 19 1 4 3 -2 6 -13 5 -11 0 -14 -3 -6 -6z"/>
<path d="M6227 1169 c7 -7 15 -10 18 -7 3 3 -2 9 -12 12 -14 6 -15 5 -6 -5z"/>
</g>
</svg>
