<?xml version="1.0" standalone="no"?>
<!DOCTYPE svg PUBLIC "-//W3C//DTD SVG 20010904//EN"
 "http://www.w3.org/TR/2001/REC-SVG-20010904/DTD/svg10.dtd">
<svg version="1.0" xmlns="http://www.w3.org/2000/svg"
 width="1024.000000pt" height="1024.000000pt" viewBox="0 0 1024.000000 1024.000000"
 preserveAspectRatio="xMidYMid meet">

<g transform="translate(0.000000,1024.000000) scale(0.100000,-0.100000)"
fill="#000000" stroke="none">
<path d="M4755 9979 c-1404 -105 -2688 -809 -3539 -1944 -521 -694 -843 -1514
-941 -2395 -23 -200 -31 -646 -16 -851 59 -812 301 -1561 722 -2239 343 -554
818 -1053 1354 -1427 693 -483 1453 -762 2330 -855 159 -17 751 -17 910 0 687
73 1270 249 1850 560 434 233 797 505 1152 864 238 241 392 426 575 693 660
963 948 2165 802 3345 -222 1791 -1438 3326 -3138 3959 -428 160 -877 256
-1351 291 -161 11 -548 11 -710 -1z m845 -1178 c598 -64 1180 -198 1525 -353
342 -154 502 -307 583 -558 29 -88 24 -58 177 -1238 l135 -1043 -2 -1482 -3
-1482 -237 -3 -238 -2 0 -213 c0 -282 -10 -362 -55 -454 -118 -238 -451 -295
-659 -112 -30 26 -58 66 -83 117 l-38 76 -3 293 -3 293 -1570 0 -1569 0 0
-269 c0 -236 -2 -277 -19 -330 -48 -155 -163 -254 -328 -283 -181 -31 -368 61
-443 216 -41 88 -50 160 -50 428 l0 238 -237 2 -238 3 -3 1489 -2 1490 140
1078 c77 593 144 1098 150 1123 16 71 57 173 97 239 143 237 513 433 1073 570
363 88 731 149 1055 176 72 5 148 12 170 14 93 9 503 -5 675 -23z"/>
<path d="M3883 8269 c-43 -12 -90 -62 -104 -109 -19 -62 -4 -125 41 -174 l39
-41 1253 -3 c923 -2 1260 1 1281 9 38 16 74 62 88 112 23 84 -31 185 -111 207
-46 13 -2442 12 -2487 -1z"/>
<path d="M3195 7560 c-90 -23 -142 -66 -180 -151 -24 -54 -36 -126 -95 -543
-176 -1244 -175 -1234 -162 -1294 14 -69 45 -114 97 -144 l40 -23 2235 0
c2217 0 2235 0 2269 20 55 33 90 84 102 151 9 53 -1 139 -106 889 -63 457
-124 860 -135 896 -27 92 -69 145 -138 177 l-57 27 -1920 2 c-1056 0 -1933 -2
-1950 -7z"/>
<path d="M3077 4369 c-119 -17 -241 -111 -295 -227 -24 -51 -27 -69 -27 -162
1 -95 3 -111 30 -165 37 -77 118 -158 192 -193 52 -24 69 -27 168 -27 102 0
114 2 169 30 277 140 301 520 44 686 -81 52 -180 73 -281 58z"/>
<path d="M7054 4370 c-68 -10 -151 -49 -202 -94 -210 -190 -160 -527 97 -653
51 -25 66 -28 166 -28 101 0 115 2 170 29 80 40 149 111 188 194 29 61 32 76
32 162 0 86 -3 101 -31 161 -80 169 -237 254 -420 229z"/>
</g>
</svg>
