<?xml version="1.0" standalone="no"?>
<!DOCTYPE svg PUBLIC "-//W3C//DTD SVG 20010904//EN"
 "http://www.w3.org/TR/2001/REC-SVG-20010904/DTD/svg10.dtd">
<svg version="1.0" xmlns="http://www.w3.org/2000/svg"
 width="1024.000000pt" height="643.000000pt" viewBox="0 0 1024.000000 643.000000"
 preserveAspectRatio="xMidYMid meet">

<g transform="translate(0.000000,643.000000) scale(0.100000,-0.100000)"
fill="#000000" stroke="none">
<path d="M3591 5361 l-1525 -946 1822 -3 1822 -2 0 -1190 0 -1190 -330 0 -330
0 0 860 0 860 -325 0 -325 0 0 -860 0 -860 -330 0 -330 0 0 860 0 860 -355 0
-355 0 0 -860 0 -860 -330 0 -330 0 0 860 0 860 -687 0 -687 0 -434 -271
c-351 -220 -431 -274 -420 -284 28 -26 4972 -3080 4981 -3077 5 1 697 429
1538 950 l1529 947 -885 3 -885 2 0 1180 0 1180 330 0 330 0 0 -850 0 -850
1100 0 1101 0 413 273 c306 201 411 275 403 283 -10 9 -4959 3061 -4977 3069
-3 1 -691 -423 -1529 -944z"/>
</g>
</svg>
