<?xml version="1.0" standalone="no"?>
<!DOCTYPE svg PUBLIC "-//W3C//DTD SVG 20010904//EN"
 "http://www.w3.org/TR/2001/REC-SVG-20010904/DTD/svg10.dtd">
<svg version="1.0" xmlns="http://www.w3.org/2000/svg"
 width="1020.000000pt" height="680.000000pt" viewBox="0 0 1020.000000 680.000000"
 preserveAspectRatio="xMidYMid meet">

<g transform="translate(0.000000,680.000000) scale(0.100000,-0.100000)"
fill="#000000" stroke="none">
<path d="M4605 6218 c-269 -166 -1415 -866 -2545 -1556 -1130 -690 -2056
-1255 -2057 -1256 -2 -2 545 -337 1215 -746 669 -409 1817 -1110 2550 -1557
l1333 -814 36 21 c60 35 1097 668 2948 1798 968 591 1834 1120 1925 1175 91
55 171 105 178 112 11 10 -23 35 -175 127 -392 240 -3959 2418 -4424 2701
-268 164 -488 297 -490 296 -2 0 -224 -136 -494 -301z m921 -1185 c874 -533
963 -588 964 -595 0 -5 -626 -8 -1392 -8 -877 0 -1388 4 -1382 9 22 23 1380
849 1390 846 5 -2 194 -115 420 -252z m-1975 -1437 c62 -178 116 -322 119
-319 3 2 55 147 116 321 l110 317 167 3 167 2 0 -520 0 -520 -110 0 -110 0 -2
437 -3 436 -113 -329 c-62 -181 -130 -376 -151 -434 l-37 -105 -56 -3 -56 -3
-29 83 c-17 46 -86 244 -154 441 l-124 358 -3 -441 -2 -440 -90 0 -90 0 0 520
0 520 168 0 168 0 115 -324z m1939 164 l0 -110 85 0 85 0 0 -70 0 -70 -85 0
-85 0 0 -192 c0 -203 9 -261 40 -278 10 -6 46 -13 80 -17 l60 -6 0 -78 0 -79
-77 0 c-144 1 -224 35 -265 113 -21 39 -23 57 -26 290 l-4 247 -49 0 -49 0 0
70 0 69 58 3 57 3 1 80 c0 44 1 92 2 108 l2 27 85 0 85 0 0 -110z m2346 -138
c329 -201 344 -211 344 -220 0 -4 -33 -27 -73 -51 -265 -162 -528 -321 -532
-321 -3 0 -5 169 -5 375 0 206 2 375 4 375 2 0 120 -71 262 -158z m-5270 -549
c-5 -5 -511 301 -534 322 -11 10 38 44 260 179 l273 167 3 -332 c1 -183 0
-334 -2 -336z m2348 558 c115 -56 186 -171 194 -313 l5 -78 -287 0 -286 0 0
-32 c0 -140 115 -229 251 -194 39 10 63 25 90 53 20 22 38 44 40 51 3 9 24 10
89 1 46 -5 86 -12 88 -14 9 -9 -55 -109 -90 -140 -154 -140 -434 -134 -568 11
-23 25 -54 71 -68 102 -25 52 -27 68 -27 182 0 119 1 128 32 192 37 78 93 137
164 173 70 36 118 45 222 41 74 -3 97 -8 151 -35z m1346 -56 l0 -95 -37 0
c-51 -1 -115 -31 -140 -66 -47 -66 -55 -117 -57 -331 l-1 -203 -97 0 -98 0 0
385 0 385 90 0 90 0 0 -72 0 -72 29 45 c51 79 109 118 179 119 l42 0 0 -95z
m581 81 c338 -79 390 -587 77 -747 -161 -82 -361 -53 -467 67 -143 163 -146
418 -5 573 91 102 244 143 395 107z m-327 -1275 c-27 -26 -1409 -861 -1418
-858 -6 3 -272 164 -591 359 -319 195 -631 385 -693 422 -62 38 -115 73 -118
77 -3 5 626 9 1412 9 840 0 1414 -4 1408 -9z"/>
<path d="M4645 3526 c-39 -18 -79 -63 -94 -105 -21 -64 -28 -61 174 -61 184 0
185 0 185 22 0 43 -41 107 -84 133 -49 29 -130 33 -181 11z"/>
<path d="M6650 3502 c-73 -36 -104 -119 -98 -262 3 -83 7 -102 32 -144 69
-119 245 -114 306 9 22 45 25 62 25 165 0 104 -2 119 -25 160 -36 63 -80 90
-149 90 -33 0 -70 -7 -91 -18z"/>
</g>
</svg>
