<?xml version="1.0" standalone="no"?>
<!DOCTYPE svg PUBLIC "-//W3C//DTD SVG 20010904//EN"
 "http://www.w3.org/TR/2001/REC-SVG-20010904/DTD/svg10.dtd">
<svg version="1.0" xmlns="http://www.w3.org/2000/svg"
 width="861.000000pt" height="862.000000pt" viewBox="0 0 861.000000 862.000000"
 preserveAspectRatio="xMidYMid meet">

<g transform="translate(0.000000,862.000000) scale(0.100000,-0.100000)"
fill="#000000" stroke="none">
<path d="M4040 8609 c-1355 -81 -2606 -812 -3346 -1955 -595 -920 -815 -2019
-623 -3114 95 -538 313 -1093 615 -1561 384 -596 907 -1087 1529 -1434 941
-526 2056 -676 3114 -419 1058 258 1993 922 2587 1840 595 920 815 2019 623
3114 -120 684 -434 1375 -873 1920 -885 1100 -2221 1693 -3626 1609z m633
-1434 c513 -68 988 -266 1407 -588 131 -101 392 -361 490 -487 338 -440 526
-893 602 -1450 19 -142 16 -575 -5 -719 -79 -529 -253 -950 -567 -1369 -111
-149 -369 -413 -510 -522 -427 -330 -918 -532 -1460 -601 -132 -17 -522 -17
-650 0 -564 75 -1024 265 -1465 606 -138 106 -396 370 -505 517 -365 487 -558
1020 -587 1616 l-6 132 710 0 711 0 6 -31 c3 -17 6 -52 6 -78 0 -103 42 -287
101 -436 123 -318 368 -587 681 -750 218 -114 426 -165 673 -165 357 0 684
122 960 358 281 241 463 603 494 985 59 713 -409 1364 -1104 1535 -86 22 -218
41 -300 45 l-50 2 -3 714 -2 714 132 -7 c73 -4 182 -14 241 -21z"/>
</g>
</svg>
